
<svg xmlns="http://www.w3.org/2000/svg" version="1.1" xmlns:xlink="http://www.w3.org/1999/xlink" preserveAspectRatio="none" x="0px" y="0px" width="1024px" height="1024px" viewBox="0 0 1024 1024">
<defs>
<g id="Layer3_0_FILL">
<path fill="#34006F" stroke="none" d="
M 97.25 94.2
Q 97.909765625 91.6142578125 98.35 88.9
L 38.65 88.9
Q 39.090234375 91.6142578125 39.7 94.2 41.99140625 103.3830078125 46.65 110.95 55.7 125.7 68.5 125.7 81.3 125.7 90.35 110.95 95.00859375 103.3830078125 97.25 94.2
M 98.35 88.9
Q 99.4 82.528515625 99.4 75.45 99.4 54.65 90.35 39.9 81.3 25.2 68.5 25.2 55.7 25.2 46.65 39.9 37.6 54.65 37.6 75.45 37.6 82.528515625 38.65 88.9
L 98.35 88.9 Z"/>

<path fill="#FFFFFF" stroke="none" d="
M 114 88.9
L 98.35 88.9
Q 97.909765625 91.6142578125 97.25 94.2 95.00859375 103.3830078125 90.35 110.95 81.3 125.7 68.5 125.7 55.7 125.7 46.65 110.95 41.99140625 103.3830078125 39.7 94.2 39.090234375 91.6142578125 38.65 88.9
L 22.95 88.9
Q 23.3326171875 91.5943359375 23.8 94.2 26.9345703125 110.5333984375 35.75 123.4 42.05 132.65 49.6 137.6 58.2 143.3 68.5 143.3 78.8 143.3 87.45 137.6 95 132.65 101.3 123.4 110.0830078125 110.5333984375 113.15 94.2 113.6673828125 91.5943359375 114 88.9
M 99.4 75.45
Q 99.4 82.528515625 98.35 88.9
L 114 88.9
Q 114.85 82.4298828125 114.85 75.45 114.85 47.4 101.3 27.5 87.7 7.65 68.5 7.65 49.3 7.65 35.75 27.5 22.15 47.4 22.15 75.45 22.15 82.4298828125 22.95 88.9
L 38.65 88.9
Q 37.6 82.528515625 37.6 75.45 37.6 54.65 46.65 39.9 55.7 25.2 68.5 25.2 81.3 25.2 90.35 39.9 99.4 54.65 99.4 75.45 Z"/>
</g>

<g id="Layer2_0_FILL">
<path fill="#ECB37E" stroke="none" d="
M 114 88.9
Q 113.6673828125 91.5943359375 113.15 94.2 110.0830078125 110.5333984375 101.3 123.4 95 132.65 87.45 137.6 78.8 143.3 68.5 143.3 58.2 143.3 49.6 137.6 42.05 132.65 35.75 123.4 26.9345703125 110.5333984375 23.8 94.2 23.3326171875 91.5943359375 22.95 88.9
L 0 88.9 0 139.85 77 152.65 133.65 142.3 133.65 88.9 114 88.9
M 133.65 15.55
Q 132.7 15 131.7 14.4 122.3 8.8 120.65 7 115.25 2.15 112.95 0
L 0 0 0 88.9 22.95 88.9
Q 22.15 82.4298828125 22.15 75.45 22.15 75.12421875 22.15 74.8 22.3080078125 47.1689453125 35.75 27.5 49.3 7.65 68.5 7.65 87.7 7.65 101.3 27.5 114.692578125 47.1689453125 114.85 74.8 114.85 75.12421875 114.85 75.45 114.85 82.4298828125 114 88.9
L 133.65 88.9 133.65 15.55 Z"/>
</g>

<g id="Layer1_0_FILL">
<path fill="#ECB37E" stroke="none" d="
M 87.7 13.55
Q 96.85 19.2 103.3 29.35 117.7 52.2 114 88.85
L 114 88.9 133.8 88.9 133.8 0.65 -10 0.65 -10 88.9 22.95 88.9
Q 19.9 53.4 33.2 30.6 46.1 8.45 68.5 7.65 78.75 8.05 87.7 13.55 Z"/>
</g>
</defs>

<g transform="matrix( 1, 0, 0, 1, 467.6,464.15) ">
<g transform="matrix( 1, 0, 0, 1, 0,0) ">
<use xlink:href="#Layer3_0_FILL"/>
</g>

<g transform="matrix( 1, 0, 0, 1, 0,0) ">
<use xlink:href="#Layer2_0_FILL"/>
</g>

<g transform="matrix( 1, 0, 0, 1, 0,0) ">
<use xlink:href="#Layer1_0_FILL"/>
</g>
</g>
</svg>
