
<svg xmlns="http://www.w3.org/2000/svg" version="1.1" xmlns:xlink="http://www.w3.org/1999/xlink" preserveAspectRatio="none" x="0px" y="0px" width="1024px" height="1024px" viewBox="0 0 1024 1024">
<defs>
<g id="Layer32_0_FILL">
<path fill="#33006E" stroke="none" d="
M 731.5 807.3
Q 695.75078125 854.185546875 668.6 882.1 672.8 900.55 685.05 909.25 688.35 872.85 694.45 861.45 701.35 882.35 731.45 908.15 715.8 858.15 731.5 807.3
M 665.55 884.95
Q 662.85 887.4 660.9 889.15 656.35 893.1 651.7 896.45
L 661.95 903.7 665.55 884.95
M 220.3 722.9
Q 207.174609375 723.5498046875 192.2 715.55 229.4046875 779.79765625 238.55 860.5 256.180078125 840.1912109375 259.3 815.3 282.178515625 825.0654296875 279.55 898.5 299.75390625 872.1994140625 306.75 832.25 323.9658203125 855.055859375 321 914.25 344.3359375 883.6794921875 344.65 847 359.8640625 856.347265625 369.35 909.05 378.3615234375 891.796484375 376.35 860.25 383.4919921875 868.3041015625 386.65 886.4 392.7484375 877.6236328125 395 831.25 313.5583984375 805.808203125 220.3 722.9 Z"/>
</g>

<g id="Layer31_0_FILL">
<path fill="#ECB37E" stroke="none" d="
M 253.2 926.75
Q 247.5 950.3 238.55 974
L 470.4 974
Q 355.330859375 919.03828125 259.3 785.85 265.0046875 878.239453125 253.2 926.75 Z"/>
</g>

<g id="Layer30_0_FILL">
<path fill="#D9A474" stroke="none" d="
M 246.5 741.05
Q 258.45 776.3 259.3 788.45 355.35 921.65 470.45 976.6
L 513.4 976.6 529.55 869.65
Q 404.75 823.9 353.95 797.65 269.5 753.8 246.5 741.05 Z"/>
</g>

<g id="Layer29_0_FILL">
<path fill="#ECB37E" stroke="none" d="
M 758.1 280.45
Q 736.85 273.15 664.6 266.05 602.2 259.9 515.4 255.15 436.25 250.85 370.8 249.4 304.6 247.95 291.2 250.35
L 188.55 499.65 173.85 524.4
Q 144.35 522 124.4 531.9 104.7 541.6 101.35 559.7 92.4765625 607.711328125 131.4 657.65 183.2474609375 724.733984375 220.3 722.9 362.9654296875 849.7318359375 474.4 917.5 568.2314453125 974.2271484375 633.65 917.5 676.6689453125 878.9509765625 728.35 811.45 780.0810546875 743.9994140625 808.45 555.45 815.6 512.3 815.55 466.65 815 455.5 806.15 443.6 799.3765625 440.2951171875 791.25 438.7
L 758.1 280.45 Z"/>
</g>

<g id="Layer27_0_FILL">
<path fill="#BD9066" stroke="none" d="
M 667.25 688.75
Q 670.0740234375 687.6794921875 667.25 682.35 646.948046875 648.375390625 635.5 612.75 639.6884765625 648.297265625 658.3 684.75
L 642.05 690.95
Q 637.24765625 695.1236328125 644.35 696.2 656.4025390625 694.671484375 667.25 688.75 Z"/>
</g>

<g id="Layer26_0_FILL">
<path fill="#34006F" stroke="none" d="
M 744.65 140.85
Q 767.25 143.15 785.4 135.25 719.65 114.75 663.45 68.25 564.55 11.15 463.3 14.75 332.95 20.75 258.5 65.7 130.2 156.95 86.85 151.45 111.05 171.05 140.1 182.35 77.2 286.1 77.95 406.15 75.65 450.45 52.9 494.7
L 77.1 480
Q 78.4 526.45 101.35 559.7 108.05 523.85 173.85 524.4
L 193.15 491.95
Q 243.55 670.75 330.35 711.3 347.6 701.75 346.35 570.2 371.2 595.55 402.35 592.5 422.45 545.8 375.85 424.2 389.45 429.8 406.75 428.9 349.45 363.3 351.15 311.55
L 389.25 341
Q 428.25 369.85 475.35 394.7 535.45 428.35 584.8 417.15 557.85 403.9 541.85 383.75 553.85 384.55 565.55 377.75 630.3 432.4 702 453.35 655.25 415.75 641.45 380.95 687.2 430.1 763.25 448.35
L 748.65 434.25
Q 774.05 446.7 792 447.45 786 443.55 782.35 437.55 795.8 438.55 806.15 443.6 815 455.5 815.55 466.65 815.6 512.3 808.45 555.45 826.2 541.05 837.3 511.55 852.8 464.45 847.85 407.5 837.5 344.2 818.7 280.35 822.95 281.4 831.4 292.75 832.7 282.85 817.5 261.35 802.25 239.85 797.3 227.05 788.7 187.15 744.65 140.85
M 707.45 322
Q 751.25 347.4 789.05 412.95 739.3 394.6 707.45 322
M 502.95 322.25
L 557.1 371.45
Q 537.35 373.65 518.5 358.9 499.6 344.15 502.95 322.25 Z"/>
</g>

<g id="Eye_0_Layer6_0_FILL">
<path fill="#FFFFFF" stroke="none" d="
M 114.05 89.85
Q 114.85 83.4 114.85 76.4 114.85 48.35 101.3 28.45 87.7 8.6 68.5 8.6 49.3 8.6 35.75 28.45 22.15 48.35 22.15 76.4 22.15 79.7896484375 22.35 83.05 22.5615234375 86.5232421875 23 89.85 23.35 92.55 23.85 95.15 24.8923828125 100.648046875 26.55 105.75 29.9091796875 115.82109375 35.75 124.35 42.05 133.6 49.6 138.55 58.2 144.25 68.5 144.25 78.8 144.25 87.45 138.55 95 133.6 101.3 124.35 107.1408203125 115.82109375 110.45 105.75 112.1576171875 100.648046875 113.2 95.15 113.458203125 93.6578125 113.7 92.1 113.8794921875 91.0005859375 114.05 89.85 Z"/>
</g>

<g id="Symbol_1_0_Layer0_0_FILL">
<path fill="#34006F" stroke="none" d="
M 30.9 0
Q 18.1 0 9.05 14.7 0 29.45 0 50.25 0 57.35 1.05 63.7 1.5 66.4 2.15 69 4.4 78.2 9.05 85.75 18.1 100.5 30.9 100.5 43.7 100.5 52.75 85.75 57.4 78.2 59.7 69 60.3 66.4 60.75 63.7 61.8 57.35 61.8 50.25 61.8 29.45 52.75 14.7 43.7 0 30.9 0 Z"/>
</g>

<g id="Eye_0_Layer4_0_FILL">
<path fill="#ECB37E" stroke="none" d="
M 114 88.9
Q 113.6673828125 91.5943359375 113.15 94.2 110.0830078125 110.5333984375 101.3 123.4 95 132.65 87.45 137.6 78.8 143.3 68.5 143.3 58.2 143.3 49.6 137.6 42.05 132.65 35.75 123.4 26.9345703125 110.5333984375 23.8 94.2 23.3326171875 91.5943359375 22.95 88.9
L 0 88.9 0 139.85 77 152.65 133.65 142.3 133.65 88.9 114 88.9
M 133.65 15.55
Q 132.7 15 131.7 14.4 122.3 8.8 120.65 7 115.25 2.15 112.95 0
L 0 0 0 88.9 22.95 88.9
Q 22.15 82.4298828125 22.15 75.45 22.15 75.12421875 22.15 74.8 22.3080078125 47.1689453125 35.75 27.5 49.3 7.65 68.5 7.65 87.7 7.65 101.3 27.5 114.692578125 47.1689453125 114.85 74.8 114.85 75.12421875 114.85 75.45 114.85 82.4298828125 114 88.9
L 133.65 88.9 133.65 15.55 Z"/>
</g>

<g id="Eye_0_Layer2_0_FILL">
<path fill="#ECB37E" stroke="none" d="
M 87.7 13.55
Q 96.85 19.2 103.3 29.35 117.7 52.2 114 88.85
L 114 88.9 133.8 88.9 133.8 0.65 -10 0.65 -10 88.9 22.95 88.9
Q 19.9 53.4 33.2 30.6 46.1 8.45 68.5 7.65 78.75 8.05 87.7 13.55 Z"/>
</g>

<g id="Symbol_3_0_Layer0_0_FILL">
<path fill="#000000" stroke="none" d="
M 98.5 21.85
Q 90 22.6 81.8 18.6 77.75 16.65 73.3 13.05 67.9 8.65 62.5 5.5 55.7 1.55 50.5 0.7 44.15 -0.35 39.15 0.45 33.8 1.3 28.05 4.45 22.1 7.75 18.2 11.5 14.35 15.25 10.6 21.3 7.1 26.95 4.2 34.85 1.6 41.95 0 49.45 0.25 48.4 0.55 47.4 1.9 42.45 3.85 37.9 6.35 32.1 9.75 26.8 10.25 26 10.8 25.2 19.25 12.85 29.85 8.2 36.2 5.6 43.55 5.35 53.8 5.75 62.75 11.25 63.2 11.55 63.65 11.85 70.5 16.7 76.35 25.2 76.9 26 77.4 26.8 81 32.35 83.55 38.55 83.75 38.35 84 38.2 93.5 31.35 98.5 21.85 Z"/>
</g>

<g id="brow_0_Layer0_0_FILL">
<path fill="#34006F" stroke="none" d="
M 142.2 36.75
Q 144.4 38.05 145.65 37.2 146.7 36.4 145.8 34.7
L 126.65 0.95
Q 94.65 -0.2 74.1 0.05 69.4 0.1 65.45 0.3 48.55 1.05 5.7 6.55
L 0 11.75
Q 46.4 4 69.95 3.75 72 3.7 74.1 3.9 101.8 7.25 142.2 36.75
M 331.15 12.25
L 326.55 7.05
Q 292.45 1.55 278.95 0.8 275.8 0.6 272.1 0.55 255.75 0.3 230.25 1.45
L 215 35.2
Q 214.25 36.9 215.1 37.7 216.1 38.55 217.85 37.25 250 7.75 272.1 4.4 273.8 4.2 275.4 4.25 294.15 4.5 331.15 12.25 Z"/>
</g>

<g id="Layer6_0_FILL">
<path fill="#BD9066" stroke="none" d="
M 541.2 795.6
L 672.1 795.6 672.1 788.2 541.2 788.2 541.2 795.6 Z"/>
</g>

<g id="Layer0_0_FILL">
<path fill="#000000" stroke="none" d="
M 1261.8 1102.55
L 1261.8 974 -170.2 974 -170.2 1102.55 1261.8 1102.55 Z"/>
</g>

<path id="Layer0_0_1_STROKES" stroke="#000000" stroke-width="1" stroke-linejoin="round" stroke-linecap="round" fill="none" d="
M -170.2 974
L 1261.8 974 1261.8 1102.55 -170.2 1102.55 -170.2 974 Z"/>
</defs>

<g transform="matrix( 1, 0, 0, 1, 0,0) ">
<use xlink:href="#Layer32_0_FILL"/>
</g>

<g transform="matrix( 1, 0, 0, 1, 0,0) ">
<use xlink:href="#Layer31_0_FILL"/>
</g>

<g transform="matrix( 1, 0, 0, 1, 0,0) ">
<use xlink:href="#Layer30_0_FILL"/>
</g>

<g transform="matrix( 1, 0, 0, 1, 0,0) ">
<use xlink:href="#Layer29_0_FILL"/>
</g>

<g transform="matrix( 1, 0, 0, 1, 0,0) ">
<use xlink:href="#Layer27_0_FILL"/>
</g>

<g transform="matrix( 1, 0, 0, 1, 0,0) ">
<use xlink:href="#Layer26_0_FILL"/>
</g>

<g transform="matrix( 1, 0, 0, 1, 467.6,464.15) ">
<g transform="matrix( 1, 0, 0, 1, 0,0) ">
<use xlink:href="#Eye_0_Layer6_0_FILL"/>
</g>

<g transform="matrix( 1, 0, 0, 1, 37.6,25.2) ">
<g transform="matrix( 1, 0, 0, 1, 0,0) ">
<use xlink:href="#Symbol_1_0_Layer0_0_FILL"/>
</g>
</g>

<g transform="matrix( 1, 0, 0, 1, 0,0) ">
<use xlink:href="#Eye_0_Layer4_0_FILL"/>
</g>

<g transform="matrix( 1, 0, 0, 1, 0,0) ">
<use xlink:href="#Eye_0_Layer2_0_FILL"/>
</g>

<g transform="matrix( 1, 0, 0, 1, 24.95,3.2) ">
<g transform="matrix( 1, 0, 0, 1, 0,0) ">
<use xlink:href="#Symbol_3_0_Layer0_0_FILL"/>
</g>
</g>
</g>

<g transform="matrix( 1, 0, 0, 1, 663.6,472.45) ">
<g transform="matrix( 1, 0, 0, 1, 0,0) ">
<use xlink:href="#Eye_0_Layer6_0_FILL"/>
</g>

<g transform="matrix( 1, 0, 0, 1, 37.6,25.2) ">
<g transform="matrix( 1, 0, 0, 1, 0,0) ">
<use xlink:href="#Symbol_1_0_Layer0_0_FILL"/>
</g>
</g>

<g transform="matrix( 1, 0, 0, 1, 0,0) ">
<use xlink:href="#Eye_0_Layer4_0_FILL"/>
</g>

<g transform="matrix( 1, 0, 0, 1, 0,0) ">
<use xlink:href="#Eye_0_Layer2_0_FILL"/>
</g>

<g transform="matrix( 1, 0, 0, 1, 24.95,3.2) ">
<g transform="matrix( 1, 0, 0, 1, 0,0) ">
<use xlink:href="#Symbol_3_0_Layer0_0_FILL"/>
</g>
</g>
</g>

<g transform="matrix( 1, 0, 0, 1, 469.35,442.2) ">
<g transform="matrix( 1, 0, 0, 1, 0,0) ">
<use xlink:href="#brow_0_Layer0_0_FILL"/>
</g>
</g>

<g transform="matrix( 1, 0, 0, 1, 0,0) ">
<use xlink:href="#Layer6_0_FILL"/>
</g>

<g transform="matrix( 1, 0, 0, 1, 0,0) ">
<use xlink:href="#Layer0_0_FILL"/>

<use xlink:href="#Layer0_0_1_STROKES"/>
</g>
</svg>
