<?xml version="1.0" encoding="utf-8"?>
<!-- Generator: Adobe Illustrator 19.0.0, SVG Export Plug-In . SVG Version: 6.00 Build 0)  -->
<svg version="1.0" id="Layer_2" xmlns="http://www.w3.org/2000/svg" xmlns:xlink="http://www.w3.org/1999/xlink" x="0px" y="0px"
	 viewBox="0 0 8192 2048" enable-background="new 0 0 8192 2048" xml:space="preserve">
<path fill="none" stroke="#000000" stroke-miterlimit="10" d="M3394.4,1850.9"/>
<path fill="none" stroke="#000000" stroke-miterlimit="10" d="M-1,1850.9"/>
<path fill="#FFFFFF" stroke="#000000" stroke-miterlimit="10" d="M0,2048c0,0,8192,0,8192,0v-197.1c-442.4,0-756.5,0.9-986.9-45
	c-181.8-36.2-332.2-82.5-522.1-141c-495.7-152.7-537.4-217.3-825.1-276c-150.4-30.7-404.5-80.4-720.1-36
	c-96.8,13.6-194,35.3-798.1,240c-194.9,66.1-243.1,88.3-411,141c-287,90.1-430.5,135.2-549.1,150c-224.3,28.1-475.6-45.9-969.1-195
	c-380.2-114.9-407.3-146.2-576.1-168c-342.3-44.2-636.9,44.7-753.1,78c-277.1,79.3-389.3,134.9-482.7,167.7
	c-195.9,68.9-304.6,84.3-598.9,84.3V2048z"/>
</svg>
