<?xml version="1.0" encoding="utf-8"?>
<!-- Generator: Adobe Illustrator 19.0.0, SVG Export Plug-In . SVG Version: 6.00 Build 0)  -->
<svg version="1.0" id="Layer_1" xmlns="http://www.w3.org/2000/svg" xmlns:xlink="http://www.w3.org/1999/xlink" x="0px" y="0px"
	 viewBox="1230 -372.2 3072.4 1536.2" enable-background="new 1230 -372.2 3072.4 1536.2" xml:space="preserve">
<g id="White">
	<path fill="#808080" d="M1367.5,201.8l7.4-2.2l8.1-0.7l7.4,2l6.1,3.2l2.1,2.6l2.4,9.6l3.3,19.8l2.6,19l4.7,3.8l27,6.2l7.2-2.3h6.3
		l4.7,9l7.2-1.7l10-7.3l43.3-6.3l22-21.8l58.5-15.8l2.3-4l6.8-2.3l4.3-3.8l-1.3-3.5l-2.3-10.8l1.2-9.3l3.5-5.8l8.3-7.8l11.1-6.1
		l9.3-1.8l8.9,1.8l9.8,5.6l3.2,3.6l1.3,5.4l0.4,5.2h5.9l16-6.1l16.3-3.9h6.9l7.1-4.2l10.1-3.5l31.1-0.8l5-2l5-1.9l9.5-2.3l5.6-0.9
		h15.6l0.8,0.3l0.6,0.7l0.7,1.4v1.7l-0.8,2l-1.5,3.4l-4.9,8.5l-9.7,13.1l12.1-1l15.8-0.7l11.6,1.3l18.4,5.6l10.3,5.9l8.9,8.6
		l14.3,9.3l3.2,3l1.1,3.6l3.3,8l4.8,4.1l1.8,2.1v1.5l5.6,6l-0.9,15.5l6.1,3.8l8.4,5.5l7.4,8.3l12.2-9.9l2,0.4l18.2,7.2l35.6,11.2
		c0,0,14.6,4,14.9,4.1s6.7,1.3,6.7,1.3v3.4h3.2v4.9l0.8,0.6v0.9l3.8-0.3v5.3l8.9,3.3l1.7,16l3.7,19.8l5.8,23.5l-2.3,44.5l12.2-3.5
		l3-1.2l3.7-1.2c0,0,1.5-0.3,1.8-0.3c0.3,0,2.8-0.3,2.8-0.3l1.8,0.9l1.8,2l0.8,3.2h7.3l16.2-3.8l12-0.9l7.8-2.6l14.3,0.6l13.5-0.8
		l9.1-3.3l9.4-3.8l12.9-2.8l10.3-3.9l4.1-1.4l3.5-3.1l3.8,0.3l4,1.9l6.1,0.4l1.9-0.2v2.1l2.8,4.6l-0.1,4.1l-1.6,1.9l-4.9-0.2
		l-3.1,5.8l-5.1,0.2l-7.4,3.3l-8,4.7l-12.8,6.6l-12.5,5.4l-5.2,0.8l-11.4,6.7l-8.1,6.9l-8.4,7.6l-9.4,15.5l-6,11.1l-3.6,4.2
		l-5.4,3.3l-9.3,1.8l-7.4,17.6l-1.3,7l-1.8,4.3l-2.8,9.3l-2.5,9.2l-2.5,9.8l-0.9,11.4l6.9,18l1.4,1.1l8.1,38.5l1.1,19.4l5.9,33.3
		l0.1,30.8l0.5,7.8l3.3,10.8l4.4,8.9l13.1,24.4l14.6,28.1l7.8,12.8l4.4,7.6l6.3,11.1l3.6,10l4.6-4.8l3.9-2.3l5.6-2
		c0,0,2.8,1,2.9,1.1s2.5,0.7,2.5,0.7s3.9-0.1,4.3-0.1s5.5-0.1,5.8,0.1c0.3,0.2,5.9,1.8,6.3,1.9c0.4,0.1,10.6,4.1,10.6,4.1l6.6,4.7
		l3.4,4.1l1.7,2.8l0.5,3.8l-0.1,6.3l33.5,4.7l8.1,4.5l7.9-1.4c0,0,22.3,1,22.6,1.4c0.3,0.4,4.3,0,4.3,0l2.9,2.5l2.5,2l1.4,2.4
		l0.8,4.5l2.5,6.6l2.9,5l2.9,2.6l10.5,3.3l11.8,1.4l11.1-1.3l21.4-0.3l6.9,1.5l4.5,2.5l8.5,4.5l18,5.5l18.5,4l21,2h9.3l5.5-2
		l5.8-1.5l8,1.5l16,4.3l16.5,5.8l10.8,2.8l9,2l5-1.5l8-2.5l9.3-3.5l13,1.5l22.5,4.5l25.8,7.8l10.5,1.3h9.8l15.3-4.5l15-2.3l46.3-2.5
		l19.8-2.5l46-0.8l80.7-2l14.3,1l11,0.3l21-3l26.3-0.3l6.3,1.3l3.7,3.3l6,3.3l18.7-1.3l40.7-4.3l60-0.7c0,0,22.7,1,23.7,1
		s15.7-2.7,15.7-2.7l24.7-2l14.8-3.8l25.8-0.5l26.5,2l18.8,1l-18.3-73l-9-59.5l-3.8-42.3l13.8,5.5l9.1-60.5l5.9-33l3.1-42.9
		l2.6-16.8l3.4-10.1l15.6-9.9l70-2l52.7,8.7l112.7,2l165.3,0.7l39.3,2l4.5-5.5l5.8-4.2l2.3-1.2l25.8,6.8l1.5,1.3l1.5,12.7l42,2.5
		l48,6l10.8-6.6l21.5-5.5l28.5-1l2.8-2l12-4l4-1.8l4.5-5.3l6.5,0.3l9,3l12.3,2c0,0,1.5,1.5,2.5,2.5s0,7.5,0,7.5l4.5,6.3
		c0,0,9.8,4.5,10.5,4.8s12,3.5,12,3.5l9.3,1.5l5.8,1.3l16.5-5l14,0.3l20.3,3.8l4.3,0.8l16.3-6.8l53-0.5l31.3-2.3l5-0.5l23.3-11.3
		l21.8-0.5l30.5-28c0,0,28.5-31,29-31.8s33.3-27.8,33.3-27.8l33.3-36.2l5.2-16l14.8-19.2l14.9-17.3v768.8H1230V153.4
		c24.7,0.2,61.6,2.4,73.3,4.8c23.2,4.8,55,17.2,53.9,23.3l-4.7,10.8L1367.5,201.8z"/>
</g>
</svg>
