<?xml version="1.0" encoding="utf-8"?>
<!-- Generator: Adobe Illustrator 19.0.0, SVG Export Plug-In . SVG Version: 6.00 Build 0)  -->
<svg version="1.0" id="BlackDrop" xmlns="http://www.w3.org/2000/svg" xmlns:xlink="http://www.w3.org/1999/xlink" x="0px" y="0px"
	 viewBox="0 0 3072.4 1536.2" enable-background="new 0 0 3072.4 1536.2" xml:space="preserve">
<path d="M659.2,760.1l-32.5-8.2l-73.8-40.7l-25.3-2.4l-42.7,4.9l-65.3,16.6l-47.7,13.1l-58.7,3.7c0,0-29,5.3-30.7,4.8
	c-1.7-0.6-20.3,0-20.3,0h-35.5l-34.9-2.8l-14.9-5.5c0,0-4.6-4.8-5.1-4.8s-24-5.3-24-5.3l-60-13.5L35,713.4L0,708.9l0,827.4h3072.4
	V931.9l-10.2,12.6l-22,18l-24,19l-25.3,26.3l-22.7,13.3l-14.7,11.7l-27,11l-55,7.3l-86.3,14l-44,6.7h-50.7l-5.4-0.7l-19.6-2.4
	l-19-2.3l-19.6-4.3l-32.3-3.8l-32.3,2.5l-49.3-1.3l-75-19.8l-34-10.9l-21.5-4.8l-21,4.5l-57,2.3h-94.5h-72.5l-57.5,2.8h-17.6
	l-4.6,12.9l-4.9,17.4l-0.8,21.1l0.6,30.5l4.9,23.8l6.4,29.3l-0.9,22.1l-1.6,19.9l-2.3,7.4l-7,10.4l-2.1,11.1l2.5,12.6l0.4,11.3
	c0,0,1.3,56.6,1.3,57s-1.4,30.9-1.4,30.9l-53.9,29.2c0,0-24.7,4-25.7,4s-37,0.7-37,0.7l-15.3,5.3l-41.3,1.7l-86.7,0.7l-49.7,6.3
	h-62.7l-36-5l-48-12l-22.7-1l-38,5l-38,4.5l-39,8.5h-163l-166.5-18.5l-114.5-35l-52.8-19.5l-78.3-23.8l-29.8-12.8l-29.4-20.4
	l-24.9-20l-9.8-10.9l-8.5-5.9l-10-0.6l-6.4-1.9l-17.8-20.4l-12.4-22.4l-25.8-59.5l-11.6-25.6l-3.9-16.7l0.9-24.8
	c0,0-3.8-0.7-4.3-0.8c-0.5-0.2-14,4.1-14,4.1L666,977l20.8-49.8l-4.1-13.8l-6.8-18l6-19.8l-14.9-31.8l1.4-17l-9.2-16.8L659.2,760.1z
	"/>
</svg>
