<?xml version="1.0" encoding="utf-8"?>
<!-- Generator: Adobe Illustrator 19.0.0, SVG Export Plug-In . SVG Version: 6.00 Build 0)  -->
<svg version="1.0" id="Layer_1" xmlns="http://www.w3.org/2000/svg" xmlns:xlink="http://www.w3.org/1999/xlink" x="0px" y="0px"
	 viewBox="1230 -372.2 3072.4 1536.2" enable-background="new 1230 -372.2 3072.4 1536.2" xml:space="preserve">
<g id="lightGrey">
	<path fill="#676767" d="M1262.3,262l-0.2-53.3l8.6,2.8l14.3,2.7l17,2.1h30.1l12.8-2.8l18.6-5.4l-1.7,6.8l-0.8,9.3l0.1,17.1l0.4,6.1
		l0.7,3.8l2,3.6l2,0.9c0,0-12.7,3.4-12.9,3.4c-0.2,0-13.7,3.2-13.7,3.2l-23.6,2.3h-23.7L1262.3,262z"/>
	<path fill="#676767" d="M1363.6,208.1"/>
	<path fill="#676767" d="M1366.3,255.7"/>
	<path fill="#676767" d="M1416.4,287.3"/>
	<path fill="#676767" d="M1421.8,276.3"/>
	<path fill="#676767" d="M1398.3,311.6"/>
	<path fill="#676767" d="M1396.5,301.8"/>
	<path fill="#676767" d="M1978.3,432.5"/>
	<path fill="#676767" d="M2187.2,406.2"/>
	<path fill="#676767" d="M2191,406.3"/>
	<path fill="#676767" d="M2188.7,872.1l-8.4,2.8l-1,1.6l-0.8,2.9l-0.2,3.3h4c0,0,3.1-0.9,3.3-0.9c0.1,0,3.8-1.4,3.8-1.4l-0.6-0.9
		v-7.4H2188.7z"/>
	<path fill="#676767" d="M2180.2,874.9"/>
	<path fill="#676767" d="M2178.3,882.6"/>
	<polygon fill="#676767" points="1921.9,425.8 1921.1,404 1921.1,372.1 1923,364.7 1923.9,356.8 1909.2,381.1 1889.2,387.9 
		1889.4,437.8 1892.9,436.1 1896.5,432.5 	"/>
	<polygon fill="#676767" points="1934,429.9 1933.7,427.2 1931.6,425.8 1929.5,430.3 	"/>
	<path fill="#676767" d="M1889.4,437.8"/>
	<polygon fill="#676767" points="1898.5,454.7 1897.1,471.7 1918.9,463.4 1919.3,458.9 1933.7,455.5 1940.5,453.8 1944.4,451.3 
		1946.8,448.5 1935.9,446.6 1944.3,442.6 1943.8,436.6 1942.3,433.9 1914.9,441.3 1917.9,447.2 	"/>
	<path fill="#676767" d="M1897.1,471.7"/>
	<path fill="#676767" d="M1949.8,512.5c0,0-18.8,5.2-19,5.2c-0.2,0-24.8,5.5-24.8,5.5l6-19.8l50.4-21L1949.8,512.5z"/>
	<polyline fill="#676767" points="1916.9,555 1935.9,552.1 1949.8,548.4 1960.7,543.9 	"/>
	<path fill="#676767" d="M1906,523.2"/>
	<polyline fill="#676767" points="1916.9,555 1896,604.8 1906.5,691.7 1920.5,687.6 1962.7,673.3 1950.3,633.9 1937.8,603.2 
		1946.7,577.1 1957.3,556.4 1961.3,545.4 	"/>
	<polygon fill="#676767" points="1923.9,688.7 1955.1,679.6 1980.9,668.6 1995.9,709.8 2005,737.1 2006.3,775.7 2011.4,788.6 
		2022.9,815.8 2036.3,836.3 2056,863.8 2049.2,868.4 2040.4,873.7 2030,877 2020.2,866.1 2011.7,860.2 2001.7,859.5 1995.3,857.7 
		1977.6,837.3 1965.2,814.9 1939.4,755.4 1927.8,729.8 1923.9,713.2 	"/>
	<path fill="#676767" d="M3283.1,979"/>
	<path fill="#676767" d="M2030,877"/>
	<path fill="#676767" d="M3876.5,694.2"/>
	<path fill="#676767" d="M3292.6,661.5"/>
	<path fill="#676767" d="M3920.5,699.6"/>
	<path fill="#676767" d="M1357.3,181.5"/>
	<polygon fill="#676767" points="1860.2,266.9 1867,265.8 1876.4,264.5 1886.5,263.6 1894.1,263.6 1894.9,248.1 1889,247.6 
		1877.3,248.9 1867,251.1 1867,251.1 1864.8,257.3 1861.3,263.3 	"/>
	<polygon fill="#676767" points="2005.5,295.5 2003.9,296.9 2002.6,299.2 2002.6,301.3 2004.1,300.6 2005.5,298.8 	"/>
	<polygon fill="#676767" points="2008.7,303.7 2008.7,298.8 2005.1,302 2006.5,303.2 	"/>
	<polygon fill="#676767" points="2031,417.4 2033.4,372.9 2027.5,349.4 2023.9,329.6 2022.2,313.5 2009.8,313.9 2013.3,310.2 
		2013.3,305 2010.6,307.7 2008.4,305.1 1991.8,312.2 1989.6,324.8 1987,317 1961.9,339 1961.3,392.6 1978.3,432.5 	"/>
	<polygon fill="#676767" points="2187.9,412.2 2191,406.3 2195.9,406.6 2197.5,404.7 2197.6,400.5 2194.8,395.9 2194.7,393.8 
		2193.2,395.2 2190.6,397.2 2188.5,400 2186.2,403.3 2187.2,406.2 2184,406.5 2184.1,407.8 2186.7,412.2 	"/>
	<path fill="#676767" d="M2087.8,848.7"/>
	<path fill="#676767" d="M2137.7,821l-3.6-10l-6.3-11.1l-4.4-7.6l-7.8-12.8l-14.6-28.1l-13.1-24.4l-4.4-8.9l-3.3-10.8l-0.5-7.8
		l-0.1-30.8l-5.9-33.3l-1.1-19.4l-8.1-38.5l-1.4-1.1l-6.9-18l0.9-11.4l2.5-9.8l2.5-9.2l2.8-9.3l1.8-4.3l1.3-7l7.4-17.6h-26.8
		l-11.9,9.8l-23.8,19.8l-13.5,18.3l-3.3,6v21.5l1.2,21.3l8.2,39l10.2,35l9.4,30.3l-0.3,1.2h-1.8l-8.3-3.8l-5.2-0.8l7.4,18.4
		l10.8,31.3l14.8,41.8l9.9,17.3l11.8,13.9l3.1,3.7l1.9,4.3l0.5,36.2l8.2-3.3l6.2,2l-4.9,2.3l-2.3,1.5l3,3l2.1,4.5
		c0,0,0.5,2.3,0.5,2.4s-0.4,2.4-0.4,2.4l-2.1,4.4l2.5-0.3l3.2-1.7l2.5-1.9l1.3-4.6l0.4-4.3l-1.3-3.3l-1.1-0.8l0.3-35.9l23.1,28
		l15.2-5.4l0.9-4.8l1.7-5.3l2.5-5l3.7-4.7L2137.7,821z"/>
	<polygon fill="#676767" points="2237.8,850.4 2229.7,845.9 2234.1,853.5 	"/>
	<path fill="#676767" d="M2268.7,850.5l-1.6,1.6l-0.6,2.3v12.5l-1,3.2l-2.7,3.2l-5.2,4.6l1.1,3.3l0.7,8.6l0.4,7.2l3.7-1.3l3.2-1.9
		l2.3-3.4l1-1.6l3.4,0.9l3.6,0.8l0.8-0.7l2.1-3.5l0.9-2.8l2.3-1.7l3.4-1l1.8-1.6v-2.3l-0.6-1.5l-2.2-2l-2.9-5l-2.5-6.6l-0.8-4.5
		l-1.4-2.4l-2.5-2l-2.9-2.5c0,0-3.9,0.4-4.3,0"/>
	<path fill="#676767" d="M3168.5,730.4l9.1-60.5l5.9-33l3.1-42.9l2.6-16.8l3.4-10.1l15.1,11l0.4,2l1.3,8.3l4.1,5.5l11,7.8l0.6,5
		l-1.4,16.6l19.4,6.8l20.6,11l13.1,10.4l15.8,10.1l-4.6,12.9l-4.9,17.4l-0.8,21.1l0.6,30.5l4.9,23.8l6.4,29.3l-0.9,22.1l-1.6,19.9
		l-2.3,7.4l-7,10.4l-2.1,11.1l2.5,12.6l0.4,11.3c0,0,1.3,56.6,1.3,57s-1.4,30.9-1.4,30.9l-15.6-11.5c0,0-24.4-16-25.3-16.6
		c-0.9-0.6-15.3-13.9-15.3-13.9l-27-26.8l-14.3-10.6l-18.3-73l-9-59.5l-3.8-42.3l11.2,13.6l1.9-2.8L3168.5,730.4"/>
	<polygon fill="#676767" points="3668.5,587.8 3677.4,585.4 3684,582.6 3689.7,578.6 3688.2,565.9 3684.1,568.2 3677.6,570.8 
		3674.4,571.8 3674.6,576 3670.4,585.7 	"/>
	<polygon fill="#676767" points="3840.5,573.9 3839.3,579.8 3838.2,583.3 3840,587.4 3845.3,594.4 3854.5,610.5 3850.4,626.5 
		3847.2,638 3846.3,652.7 3857,663.2 3866.8,678.3 3876.5,694.2 3895.5,696.5 3915.1,698.9 3920.5,699.6 3907.5,689.7 3900.5,665.7 
		3878.1,638.7 3886.2,617.7 3874.5,592.2 3861.6,577.5 3866.8,561 3863.7,560.9 3859.2,566.2 3855.2,567.9 3843.2,571.9 	"/>
	<line fill="none" x1="1230" y1="1164" x2="4302.4" y2="1164"/>
	<path fill="#676767" d="M1456.7,271.8l-4.7-9c0,0-3.2,3.1-3.5,3.5s-7.4,5.2-7.4,5.2l-7.2,5.4l-6.9,3.6l-5.2-4.1l-5.4,10.9l-9.6,7.5
		l-10.3,7l1.8,9.8l9.5-6.1l11.6-8.3l4.9-7.1l5.9-0.1c0,0,9.2-6.4,9.5-6.5c0.3-0.1,9.8-7.3,9.8-7.3L1456.7,271.8z"/>
	<path fill="#676767" d="M1352.7,192.3"/>
	<path fill="#676767" d="M1357.3,181.5l-4.7,10.8l-10.1,3.6l-20.1,1.6l-32.8-2.5l-23.4-4l-10.3-5.2c0,0,4.7-2,6.7-2.5
		c1.4-0.3,7.2-0.3,7.2-0.3C1340.2,188.3,1356.6,185.6,1357.3,181.5"/>
	<polyline fill="#676767" points="1398.6,206.7 1401,216.3 1404.2,236.1 1406.8,255 1405.3,256.2 1401.8,257.6 1393.8,259.7 
		1384.3,260.6 1384.3,242.7 1383,221.4 1382.3,210.6 1388.4,210.8 1394.7,209.2 1398.6,206.7 	"/>
	<path fill="#676767" d="M1656.2,197.6l-4.9,5.4l-10.7,5.6l-12.2,5.2c0,0-12.9,3.7-13.3,3.8c-0.5,0-4.8,1.1-4.8,1.1h-3.6l-1-1.1
		l-0.5-1.2l0.5-1.9l1-1.9l4.3-3.8l2,1.1l4.2,1.3l8-0.8l12.1-3.9l11.9-4.4L1656.2,197.6z"/>
</g>
</svg>
