<?xml version="1.0" encoding="utf-8"?>
<!-- Generator: Adobe Illustrator 19.0.0, SVG Export Plug-In . SVG Version: 6.00 Build 0)  -->
<svg version="1.0" id="Layer_1" xmlns="http://www.w3.org/2000/svg" xmlns:xlink="http://www.w3.org/1999/xlink" x="0px" y="0px"
	 viewBox="1230 -372.2 3072.4 1536.2" enable-background="new 1230 -372.2 3072.4 1536.2" xml:space="preserve">
<g id="DarkGrey">
	<polygon fill="#4D4D4D" points="1262.3,262 1262.2,208.7 1243.6,203.8 1230,199.5 1230,257.9 	"/>
	<polygon fill="#4D4D4D" points="1363.6,208.1 1365.2,204.6 1367.3,206.2 1371.3,207.8 1377.2,209.6 1382.3,210.6 1383,221.4 
		1384.3,242.7 1384.3,260.6 1377.6,259.6 1366.3,255.7 1364.3,254.7 1362.3,251.2 1361.7,247.4 1361.2,241.3 1361.1,224.2 
		1361.9,214.9 	"/>
	<path fill="#4D4D4D" d="M1382.3,210.6"/>
	<path fill="#4D4D4D" d="M1384.3,260.6"/>
	<polygon fill="#4D4D4D" points="1416.4,287.3 1405.5,283.9 1401.7,281.2 1421.8,276.3 	"/>
	<path fill="#4D4D4D" d="M1419.3,297.2l4.9-7.1l7.1,4.1c0,0-8.4,3.4-8.5,3.4C1422.7,297.6,1419.3,297.2,1419.3,297.2z"/>
	<path fill="#4D4D4D" d="M1815.1,238.5l8.6-2.3c0,0,8.8-0.9,9-0.9s9.6,2.2,9.6,2.2l11.1,4.4l6.6,3.8l6.9,5.3l-2.2,6.2l-3.5,6.1
		l-1.1,3.6l-10-11.1c0,0-6.6-6.9-6.8-7s-10-4.8-10-4.8l-10.1-2.9L1815.1,238.5z"/>
	<line fill="none" x1="1867" y1="251.1" x2="1867" y2="251.1"/>
	<path fill="#4D4D4D" d="M1860.2,266.9"/>
	<polygon fill="#4D4D4D" points="1987,317 1989.6,324.8 1991.8,312.2 1979.5,313.5 	"/>
	<path fill="#4D4D4D" d="M2188.5,400"/>
	<path fill="#4D4D4D" d="M2186.2,403.3"/>
	<path fill="#4D4D4D" d="M2187.2,406.2"/>
	<path fill="#4D4D4D" d="M2070,854.5"/>
	<polygon fill="#4D4D4D" points="2087.8,848.7 2088.1,821 2111.2,849 	"/>
	<path fill="#4D4D4D" d="M2111.2,849"/>
	<polygon fill="#4D4D4D" points="2136.3,822.5 2136,827.1 2136.4,832.1 2138.3,837.5 2142.6,842.4 2148.1,847.1 2157.6,850.4 
		2167.2,852.1 2178.1,852.2 2182.4,851.1 2183,852.3 2182,853 2180.6,854.5 2179.6,856.1 2179.6,857.9 2163.6,857.9 2141.4,857.3 
		2133.3,855.9 2130.3,853.1 2127.6,849.2 2126.3,845.8 2126.3,843.6 2127.3,838.8 2128.9,833.5 2131.4,828.4 2135,823.8 	"/>
	<polygon fill="#4D4D4D" points="2259.8,897 2250.2,896.6 2225,890.5 2193.7,882.2 2189.3,880.3 2188.7,879.4 2188.7,872.1 
		2180.8,869.9 2179.7,868.8 2179,860.1 2189,861.5 2211.4,868.4 2233.8,873.7 2257.7,877.8 2258.8,881.2 2259.5,889.8 	"/>
	<path fill="#4D4D4D" d="M2189.3,880.3"/>
	<path fill="#4D4D4D" d="M2188.7,872.1"/>
	<polygon fill="#4D4D4D" points="2180.2,874.9 2179.3,876.5 2178.5,879.4 2178.3,882.6 2173.5,881.1 2168,878.5 2163.3,875.6 
		2162.3,873.9 2171.1,871.4 2173.5,872.1 	"/>
	<path fill="#4D4D4D" d="M2431.8,902.9l-1.4,0.5l-0.3,1.1l0.5,1.1l5,2.8c0,0,8.5,2.6,8.7,2.7c0.2,0.1,8.9,2.2,8.9,2.2l11.5,1.6h6.9
		c0,0-6.4-1.9-6.5-1.9c-0.1,0-12.8-4.4-12.9-4.4s-8.6-3.2-8.9-3.3c-0.3-0.1-5.2-1.5-5.5-1.5c-0.3,0-3.9-0.8-4.3-0.8
		C2433.1,903,2431.8,902.9,2431.8,902.9z"/>
	<path fill="#4D4D4D" d="M2509.8,919l-0.8,0.9l2.8,1.7l8,2.8l9.5,2.1l10.6,1.1h11.4l4.8-0.6l7.8-2.6c0,0-9.6-0.6-9.8-0.6
		s-15-0.6-15-0.6l-11.9-0.9l-8.6-2.1l-5-1.3L2509.8,919L2509.8,919z"/>
	<path fill="#4D4D4D" d="M3668.5,587.8"/>
	<path fill="#4D4D4D" d="M3674.4,571.8"/>
	<path fill="#4D4D4D" d="M1921.9,425.8"/>
	<path fill="#4D4D4D" d="M1923.9,356.8"/>
	<path fill="#4D4D4D" d="M1934,429.9"/>
	<path fill="#4D4D4D" d="M1931.6,425.8"/>
	<path fill="#4D4D4D" d="M1933.7,455.5"/>
	<path fill="#4D4D4D" d="M1962.5,482.4"/>
	<path fill="#4D4D4D" d="M1949.8,512.5"/>
	<path fill="#4D4D4D" d="M1960.7,543.9"/>
	<path fill="#4D4D4D" d="M2056.5,863.7"/>
	<path fill="#4D4D4D" d="M1962.5,673.5"/>
	<path fill="#4D4D4D" d="M1980.8,668.6"/>
	<path fill="#4D4D4D" d="M3660.7,557.8c0.1,0.2,4.9,6,4.9,6l8.8,8l0.2,4.2l-4.2,9.7l-1.9,2c0,0-4-0.6-4.1-0.7c-0.1,0-3-3.2-3-3.2
		l-10.5-10.8l-2-2.6l-0.8-2l4.5-5.5l5.8-4.2L3660.7,557.8z"/>
	<path fill="#4D4D4D" d="M1978.3,432.5l47.3,18.5l13.9,1.4h6.6l9.3-3.1l11.8-7.1c0,0,16.4-9.6,16.8-9.7c0.4,0,13.1-5.5,13.1-5.5
		l31.1-5.8l21.4-5.9c0,0,16.3-6.6,16.6-6.6s4.3-1.6,4.3-1.6l2-2.3h6.7l3.7-1.3l3.5-0.3l1,2.9l-3.2,0.3l0.1,1.4l2.6,4.4l-3.9,0.2
		l-7.4,3.3l-8,4.7l-12.8,6.6l-12.5,5.4l-5.2,0.8l-11.4,6.7l-8.1,6.9l-8.4,7.6l-9.4,15.5l-6,11.1l-3.6,4.2l-5.4,3.3l-9.3,1.8h-26.8
		l-11.9,9.8l-23.8,19.8l-13.5,18.3l-3.3,6v21.5l1.2,21.3l8.2,39l10.2,35l9.4,30.3l-0.3,1.2h-1.8l-8.3-3.8l-5.2-0.8l7.4,18.4
		l10.8,31.3l14.8,41.8l9.9,17.3l11.8,13.9l3.1,3.7l1.9,4.3l0.5,36.2l-1.8,1.1l-1.3,1.3h10.2l3,3l2.1,4.5c0,0,0.5,2.3,0.5,2.4
		s-0.4,2.4-0.4,2.4l-2.1,4.4l-23.9-10.1l-19.8-27.5l-13.4-20.5l-11.5-27.3l-5.1-12.9L2005,737l-9.1-27.3l-16.1-42.8l-17.8,6.6
		l-12.8-41.1l-12.5-30.7l8.8-26.2l10.7-20.7l4-11l-10.9-31.4l12.7-30.1l-8.9-10.5l-10.6-6.8l-9.2-9.6l6.7-1.7l4-2.5l2.3-2.8l0.1-2.3
		l-2.6-3.6l-0.4-6l-1.6-2.7l-1.9-1.4l-0.4-1.4l-1.4-1.2h-4.1l-0.3-2.7l-2.1-1.3h-9.8L1921,404v-31.9l1.9-7.3l0.8-7.9l-36.8-7.6
		l-63-24.5l-34.7-24.2l-4.2-3l-76.8,8.2l-74.3,36.3l-54.2-13.3l-95.8,8.5l-108.9-1.9l-27-22.5l-23.8-12.7c0,0-43.5,4.5-44,4.3
		s-43.2,1.9-43.2,1.9l-7,1.7v-34.4h10.7l31.6,2.7l27.1,2.3l18.6,5.8l26.6,2.1l27.6,6.1l24.2,9.1l1.8,9.8l62.2-15.3l10.2-2.2l3.9-2.9
		l1.9-4l15.5-1.3l14.5-2.5l49-15.3l96.3-10.8l51.5-27.5h9.5l68.8,12.7l51.2,22.7l48.2,58l80.9,15.8l-0.6,53.5L1978.3,432.5"/>
	<path fill="#4D4D4D" d="M1611,208.9l-1.3-3.5l-2.3-10.8l1.2-9.3l3.3-5.6l-0.5,4.3c0,0,0.2,4.6,0.2,4.9c0.1,0.3,0.8,5,0.8,5.2
		s0.8,2.1,0.8,2.1l1.4,2l1.2,0.6l2,0.4h2l5-0.4l9-1.9c0,0,8.2-2.6,8.3-2.6s8.7-3.1,8.7-3.1l5.6-2.4l2.8-1.6l2.1-2l1.4-2.3l1.2-2.8
		l0.4,5.2l-1,5.6l-3.3,4.3l-10.6,6.9l-11.9,4.4l-12.1,3.9l-8,0.8l-4.2-1.3L1611,208.9z"/>
	<path fill="#4D4D4D" d="M1794,189.9l-10,0.8l9.7-13.1l4.9-8.5l1.5-3.4l0.4-1.7v-1.7l-0.7-1.4l0.2,0.8l-0.2,1l-3.1,4.1l-7.4,6.6
		l-8.4,6.5l-19.1,13.1l1.5,1.4l3.7,1.9c0,0,5.4,0.8,5.5,0.8c0.1,0,5.8-0.3,5.9-0.3c0.1,0,5.9-1.8,5.9-1.8l6.1-2.2l3-1.6L1794,189.9z
		"/>
</g>
</svg>
