# Blender v2.79 (sub 0) OBJ File: 'Hills.blend'
# www.blender.org
mtllib Hills.mtl
o Curve.002
v 0.000000 0.002262 -0.000000
v 0.045491 0.002262 -0.000000
v 0.171260 0.002262 -0.000000
v 0.361252 0.002262 -0.000000
v 0.599410 0.002262 -0.000000
v 0.869680 0.002262 -0.000000
v 1.156006 0.002262 -0.000000
v 1.442332 0.002262 -0.000000
v 1.712601 0.002262 -0.000000
v 1.950760 0.002262 -0.000000
v 2.140752 0.002262 -0.000000
v 2.266521 0.002262 -0.000000
v 2.312012 0.002262 -0.000000
v 2.312012 0.003002 -0.000000
v 2.312012 0.005094 -0.000000
v 2.312012 0.008345 -0.000000
v 2.312012 0.012561 -0.000000
v 2.312012 0.017550 -0.000000
v 2.312012 0.023118 -0.000000
v 2.312012 0.029072 -0.000000
v 2.312012 0.035219 -0.000000
v 2.312012 0.041366 -0.000000
v 2.312012 0.047321 -0.000000
v 2.312012 0.052889 -0.000000
v 2.312012 0.057877 -0.000000
v 2.281544 0.057880 -0.000000
v 2.252542 0.057918 -0.000000
v 2.224961 0.058040 -0.000000
v 2.198758 0.058291 -0.000000
v 2.173888 0.058719 -0.000000
v 2.150309 0.059369 -0.000000
v 2.127977 0.060290 -0.000000
v 2.106847 0.061527 -0.000000
v 2.086876 0.063127 -0.000000
v 2.068021 0.065137 -0.000000
v 2.050237 0.067604 -0.000000
v 2.033481 0.070575 -0.000000
v 2.020827 0.073188 -0.000000
v 2.008472 0.075922 -0.000000
v 1.996348 0.078779 -0.000000
v 1.984385 0.081761 -0.000000
v 1.972513 0.084870 -0.000000
v 1.960662 0.088108 -0.000000
v 1.948765 0.091477 -0.000000
v 1.936750 0.094979 -0.000000
v 1.924548 0.098617 -0.000000
v 1.912091 0.102391 -0.000000
v 1.899308 0.106305 -0.000000
v 1.886130 0.110361 -0.000000
v 1.853710 0.120628 -0.000000
v 1.825942 0.129940 -0.000000
v 1.802142 0.138377 -0.000000
v 1.781623 0.146020 -0.000000
v 1.763698 0.152950 -0.000000
v 1.747683 0.159246 -0.000000
v 1.732890 0.164990 -0.000000
v 1.718635 0.170262 -0.000000
v 1.704230 0.175142 -0.000000
v 1.688991 0.179711 -0.000000
v 1.672231 0.184050 -0.000000
v 1.653263 0.188239 -0.000000
v 1.642049 0.190498 -0.000000
v 1.629656 0.192869 -0.000000
v 1.616127 0.195243 -0.000000
v 1.601502 0.197507 -0.000000
v 1.585823 0.199551 -0.000000
v 1.569131 0.201265 -0.000000
v 1.551468 0.202537 -0.000000
v 1.532875 0.203257 -0.000000
v 1.513394 0.203313 -0.000000
v 1.493065 0.202596 -0.000000
v 1.471930 0.200994 -0.000000
v 1.450031 0.198397 -0.000000
v 1.443116 0.197362 -0.000000
v 1.435700 0.196059 -0.000000
v 1.427287 0.194319 -0.000000
v 1.417379 0.191970 -0.000000
v 1.405482 0.188840 -0.000000
v 1.391098 0.184758 -0.000000
v 1.373732 0.179552 -0.000000
v 1.352886 0.173052 -0.000000
v 1.328065 0.165086 -0.000000
v 1.298772 0.155482 -0.000000
v 1.264511 0.144069 -0.000000
v 1.224785 0.130677 -0.000000
v 1.211852 0.126260 -0.000000
v 1.200384 0.122286 -0.000000
v 1.190118 0.118683 -0.000000
v 1.180795 0.115377 -0.000000
v 1.172152 0.112296 -0.000000
v 1.163929 0.109366 -0.000000
v 1.155865 0.106515 -0.000000
v 1.147699 0.103670 -0.000000
v 1.139169 0.100758 -0.000000
v 1.130015 0.097706 -0.000000
v 1.119975 0.094441 -0.000000
v 1.108789 0.090891 -0.000000
v 1.089364 0.084797 -0.000000
v 1.071509 0.079218 -0.000000
v 1.055110 0.074139 -0.000000
v 1.040050 0.069547 -0.000000
v 1.026212 0.065425 -0.000000
v 1.013481 0.061761 -0.000000
v 1.001739 0.058539 -0.000000
v 0.990872 0.055745 -0.000000
v 0.980762 0.053366 -0.000000
v 0.971294 0.051385 -0.000000
v 0.962352 0.049790 -0.000000
v 0.953818 0.048566 -0.000000
v 0.937798 0.047179 -0.000000
v 0.921250 0.046967 -0.000000
v 0.903962 0.047902 -0.000000
v 0.885725 0.049958 -0.000000
v 0.866326 0.053108 -0.000000
v 0.845555 0.057327 -0.000000
v 0.823202 0.062587 -0.000000
v 0.799054 0.068863 -0.000000
v 0.772903 0.076127 -0.000000
v 0.744535 0.084354 -0.000000
v 0.713742 0.093517 -0.000000
v 0.680311 0.103589 -0.000000
v 0.655480 0.111214 -0.000000
v 0.634317 0.117930 -0.000000
v 0.616337 0.123808 -0.000000
v 0.601054 0.128921 -0.000000
v 0.587983 0.133341 -0.000000
v 0.576641 0.137142 -0.000000
v 0.566542 0.140395 -0.000000
v 0.557201 0.143174 -0.000000
v 0.548133 0.145550 -0.000000
v 0.538853 0.147597 -0.000000
v 0.528877 0.149387 -0.000000
v 0.517719 0.150993 -0.000000
v 0.493869 0.153359 -0.000000
v 0.470708 0.154346 -0.000000
v 0.448365 0.154137 -0.000000
v 0.426966 0.152918 -0.000000
v 0.406641 0.150874 -0.000000
v 0.387517 0.148189 -0.000000
v 0.369722 0.145048 -0.000000
v 0.353385 0.141637 -0.000000
v 0.338633 0.138140 -0.000000
v 0.325596 0.134743 -0.000000
v 0.314399 0.131629 -0.000000
v 0.305173 0.128984 -0.000000
v 0.286567 0.123529 -0.000000
v 0.269758 0.118352 -0.000000
v 0.254601 0.113452 -0.000000
v 0.240954 0.108827 -0.000000
v 0.228673 0.104478 -0.000000
v 0.217615 0.100404 -0.000000
v 0.207638 0.096602 -0.000000
v 0.198598 0.093073 -0.000000
v 0.190351 0.089816 -0.000000
v 0.182755 0.086829 -0.000000
v 0.175666 0.084112 -0.000000
v 0.168942 0.081664 -0.000000
v 0.155588 0.077112 -0.000000
v 0.142992 0.073152 -0.000000
v 0.130887 0.069746 -0.000000
v 0.119005 0.066857 -0.000000
v 0.107080 0.064447 -0.000000
v 0.094843 0.062480 -0.000000
v 0.082027 0.060918 -0.000000
v 0.068366 0.059724 -0.000000
v 0.053592 0.058860 -0.000000
v 0.037437 0.058289 -0.000000
v 0.019634 0.057974 -0.000000
v -0.000085 0.057877 -0.000000
v -0.000085 0.057137 -0.000000
v -0.000085 0.055045 -0.000000
v -0.000085 0.051794 -0.000000
v -0.000085 0.047578 -0.000000
v -0.000085 0.042589 -0.000000
v -0.000085 0.037022 -0.000000
v -0.000085 0.031067 -0.000000
v -0.000085 0.024920 -0.000000
v -0.000085 0.018773 -0.000000
v -0.000085 0.012818 -0.000000
v -0.000085 0.007250 -0.000000
v -0.000085 0.002262 -0.000000
v -0.000077 0.002262 -0.000000
v -0.000069 0.002262 -0.000000
v -0.000060 0.002262 -0.000000
v -0.000050 0.002262 -0.000000
v -0.000041 0.002262 -0.000000
v -0.000032 0.002262 -0.000000
v -0.000023 0.002262 -0.000000
v -0.000016 0.002262 -0.000000
v -0.000009 0.002262 -0.000000
v -0.000004 0.002262 -0.000000
v -0.000001 0.002262 -0.000000
vn -0.0000 -0.0000 1.0000
vn 0.0000 0.0000 -1.0000
usemtl SVGMat.001
s off
f 71//1 69//1 70//1
f 71//1 68//1 69//1
f 72//1 68//1 71//1
f 72//1 67//1 68//1
f 72//1 66//1 67//1
f 73//1 66//1 72//1
f 73//1 65//1 66//1
f 74//1 65//1 73//1
f 74//1 64//1 65//1
f 75//1 64//1 74//1
f 76//1 64//1 75//1
f 76//1 63//1 64//1
f 77//1 63//1 76//1
f 77//1 62//1 63//1
f 78//1 62//1 77//1
f 78//1 61//1 62//1
f 79//1 61//1 78//1
f 79//1 60//1 61//1
f 80//1 60//1 79//1
f 80//1 59//1 60//1
f 80//1 58//1 59//1
f 81//1 58//1 80//1
f 81//1 57//1 58//1
f 82//1 57//1 81//1
f 82//1 56//1 57//1
f 83//1 56//1 82//1
f 83//1 55//1 56//1
f 83//1 54//1 55//1
f 84//1 54//1 83//1
f 136//1 134//1 135//1
f 137//1 134//1 136//1
f 137//1 133//1 134//1
f 84//1 53//1 54//1
f 138//1 133//1 137//1
f 138//1 132//1 133//1
f 139//1 132//1 138//1
f 139//1 131//1 132//1
f 140//1 131//1 139//1
f 140//1 130//1 131//1
f 84//1 52//1 53//1
f 140//1 129//1 130//1
f 141//1 129//1 140//1
f 85//1 52//1 84//1
f 141//1 128//1 129//1
f 142//1 128//1 141//1
f 142//1 127//1 128//1
f 85//1 51//1 52//1
f 143//1 127//1 142//1
f 143//1 126//1 127//1
f 144//1 126//1 143//1
f 144//1 125//1 126//1
f 145//1 125//1 144//1
f 86//1 51//1 85//1
f 86//1 50//1 51//1
f 146//1 125//1 145//1
f 146//1 124//1 125//1
f 87//1 50//1 86//1
f 146//1 123//1 124//1
f 147//1 123//1 146//1
f 88//1 50//1 87//1
f 88//1 49//1 50//1
f 89//1 49//1 88//1
f 148//1 123//1 147//1
f 148//1 122//1 123//1
f 90//1 49//1 89//1
f 149//1 122//1 148//1
f 91//1 49//1 90//1
f 149//1 121//1 122//1
f 91//1 48//1 49//1
f 92//1 48//1 91//1
f 150//1 121//1 149//1
f 93//1 48//1 92//1
f 93//1 47//1 48//1
f 151//1 121//1 150//1
f 94//1 47//1 93//1
f 151//1 120//1 121//1
f 94//1 46//1 47//1
f 95//1 46//1 94//1
f 152//1 120//1 151//1
f 95//1 45//1 46//1
f 96//1 45//1 95//1
f 153//1 120//1 152//1
f 96//1 44//1 45//1
f 97//1 44//1 96//1
f 153//1 119//1 120//1
f 154//1 119//1 153//1
f 97//1 43//1 44//1
f 98//1 43//1 97//1
f 155//1 119//1 154//1
f 98//1 42//1 43//1
f 156//1 119//1 155//1
f 98//1 41//1 42//1
f 99//1 41//1 98//1
f 156//1 118//1 119//1
f 157//1 118//1 156//1
f 99//1 40//1 41//1
f 158//1 118//1 157//1
f 100//1 40//1 99//1
f 100//1 39//1 40//1
f 159//1 118//1 158//1
f 159//1 117//1 118//1
f 100//1 38//1 39//1
f 101//1 38//1 100//1
f 101//1 37//1 38//1
f 160//1 117//1 159//1
f 101//1 36//1 37//1
f 161//1 117//1 160//1
f 102//1 36//1 101//1
f 161//1 116//1 117//1
f 102//1 35//1 36//1
f 162//1 116//1 161//1
f 103//1 35//1 102//1
f 103//1 34//1 35//1
f 163//1 116//1 162//1
f 103//1 33//1 34//1
f 163//1 115//1 116//1
f 164//1 115//1 163//1
f 104//1 33//1 103//1
f 104//1 32//1 33//1
f 165//1 115//1 164//1
f 104//1 31//1 32//1
f 166//1 115//1 165//1
f 104//1 30//1 31//1
f 167//1 115//1 166//1
f 104//1 29//1 30//1
f 105//1 29//1 104//1
f 105//1 28//1 29//1
f 168//1 115//1 167//1
f 105//1 27//1 28//1
f 169//1 115//1 168//1
f 105//1 26//1 27//1
f 105//1 25//1 26//1
f 170//1 115//1 169//1
f 105//1 24//1 25//1
f 170//1 114//1 115//1
f 171//1 114//1 170//1
f 106//1 24//1 105//1
f 172//1 114//1 171//1
f 107//1 24//1 106//1
f 172//1 113//1 114//1
f 107//1 23//1 24//1
f 173//1 113//1 172//1
f 108//1 23//1 107//1
f 173//1 112//1 113//1
f 109//1 23//1 108//1
f 110//1 23//1 109//1
f 173//1 111//1 112//1
f 174//1 111//1 173//1
f 110//1 22//1 23//1
f 111//1 22//1 110//1
f 174//1 22//1 111//1
f 175//1 22//1 174//1
f 175//1 21//1 22//1
f 176//1 21//1 175//1
f 176//1 20//1 21//1
f 177//1 20//1 176//1
f 177//1 19//1 20//1
f 178//1 19//1 177//1
f 178//1 18//1 19//1
f 179//1 18//1 178//1
f 179//1 17//1 18//1
f 180//1 17//1 179//1
f 180//1 16//1 17//1
f 180//1 15//1 16//1
f 181//1 15//1 180//1
f 181//1 14//1 15//1
f 181//1 13//1 14//1
f 182//1 13//1 181//1
f 183//2 13//2 182//2
f 184//1 13//1 183//1
f 185//1 13//1 184//1
f 186//1 13//1 185//1
f 187//1 13//1 186//1
f 188//2 13//2 187//2
f 189//1 13//1 188//1
f 190//1 13//1 189//1
f 191//1 13//1 190//1
f 192//1 13//1 191//1
f 1//1 13//1 192//1
f 2//1 13//1 1//1
f 3//1 13//1 2//1
f 4//1 13//1 3//1
f 5//1 13//1 4//1
f 6//2 13//2 5//2
f 7//1 13//1 6//1
f 8//1 13//1 7//1
f 9//2 13//2 8//2
f 10//1 13//1 9//1
f 11//1 13//1 10//1
f 12//2 13//2 11//2
